<svg width="31" height="30" viewBox="0 0 31 30" fill="none" xmlns="http://www.w3.org/2000/svg">
<path d="M17.9853 3.59375C16.452 3.59375 14.9815 4.20284 13.8973 5.28704C12.8131 6.37123 12.204 7.84172 12.204 9.375V12.5938H9.11029C8.95529 12.5938 8.82904 12.7188 8.82904 12.875V17.125C8.82904 17.28 8.95404 17.4062 9.11029 17.4062H12.204V26.125C12.204 26.28 12.329 26.4062 12.4853 26.4062H16.7353C16.8903 26.4062 17.0165 26.2812 17.0165 26.125V17.4062H20.1378C20.2665 17.4062 20.379 17.3188 20.4103 17.1938L21.4728 12.9437C21.4832 12.9023 21.4841 12.859 21.4753 12.8171C21.4665 12.7753 21.4483 12.736 21.422 12.7022C21.3957 12.6685 21.3621 12.6412 21.3237 12.6224C21.2853 12.6036 21.2431 12.5938 21.2003 12.5938H17.0165V9.375C17.0165 9.24778 17.0416 9.12181 17.0903 9.00428C17.139 8.88674 17.2103 8.77995 17.3003 8.68999C17.3902 8.60003 17.497 8.52868 17.6146 8.47999C17.7321 8.43131 17.8581 8.40625 17.9853 8.40625H21.2353C21.3903 8.40625 21.5165 8.28125 21.5165 8.125V3.875C21.5165 3.72 21.3915 3.59375 21.2353 3.59375H17.9853Z" fill="#EBAE2D"/>
</svg>
