<svg width="28" height="28" viewBox="0 0 28 28" fill="none" xmlns="http://www.w3.org/2000/svg">
<rect x="0.5" y="0.5" width="27" height="27" rx="13.5" stroke="white"/>
<path d="M15.9011 6.11423C14.8411 6.11423 13.8244 6.53533 13.0749 7.2849C12.3253 8.03446 11.9042 9.05109 11.9042 10.1111V12.3364H9.76531C9.65815 12.3364 9.57086 12.4229 9.57086 12.5309V15.4692C9.57086 15.5763 9.65728 15.6636 9.76531 15.6636H11.9042V21.6914C11.9042 21.7985 11.9906 21.8858 12.0986 21.8858H15.0369C15.1441 21.8858 15.2314 21.7994 15.2314 21.6914V15.6636H17.3893C17.4783 15.6636 17.556 15.6031 17.5777 15.5167L18.3122 12.5784C18.3194 12.5498 18.32 12.5198 18.314 12.4909C18.3079 12.4619 18.2953 12.4348 18.2771 12.4114C18.2589 12.3881 18.2357 12.3692 18.2091 12.3562C18.1826 12.3432 18.1534 12.3365 18.1238 12.3364H15.2314V10.1111C15.2314 10.0232 15.2487 9.9361 15.2823 9.85484C15.316 9.77358 15.3653 9.69975 15.4275 9.63755C15.4897 9.57536 15.5635 9.52603 15.6448 9.49237C15.7261 9.45871 15.8132 9.44139 15.9011 9.44139H18.148C18.2552 9.44139 18.3425 9.35497 18.3425 9.24694V6.30867C18.3425 6.20151 18.256 6.11423 18.148 6.11423H15.9011Z" fill="white"/>
</svg>
