<svg width="32" height="31" viewBox="0 0 32 31" fill="none" xmlns="http://www.w3.org/2000/svg">
<path d="M10.3103 2.58337H21.1603C25.2936 2.58337 28.652 5.94171 28.652 10.075V20.925C28.652 22.912 27.8627 24.8175 26.4577 26.2224C25.0527 27.6274 23.1472 28.4167 21.1603 28.4167H10.3103C6.17697 28.4167 2.81863 25.0584 2.81863 20.925V10.075C2.81863 8.08813 3.60793 6.18259 5.01289 4.77763C6.41785 3.37267 8.32339 2.58337 10.3103 2.58337ZM10.052 5.16671C8.81871 5.16671 7.63596 5.65662 6.76392 6.52866C5.89188 7.4007 5.40197 8.58345 5.40197 9.81671V21.1834C5.40197 23.7538 7.48155 25.8334 10.052 25.8334H21.4186C22.6519 25.8334 23.8346 25.3435 24.7067 24.4714C25.5787 23.5994 26.0686 22.4166 26.0686 21.1834V9.81671C26.0686 7.24629 23.989 5.16671 21.4186 5.16671H10.052ZM22.5166 7.10421C22.9448 7.10421 23.3554 7.27431 23.6582 7.57711C23.961 7.8799 24.1311 8.29058 24.1311 8.71879C24.1311 9.147 23.961 9.55768 23.6582 9.86047C23.3554 10.1633 22.9448 10.3334 22.5166 10.3334C22.0883 10.3334 21.6777 10.1633 21.3749 9.86047C21.0721 9.55768 20.902 9.147 20.902 8.71879C20.902 8.29058 21.0721 7.8799 21.3749 7.57711C21.6777 7.27431 22.0883 7.10421 22.5166 7.10421ZM15.7353 9.04171C17.4482 9.04171 19.0909 9.72214 20.302 10.9333C21.5132 12.1445 22.1936 13.7872 22.1936 15.5C22.1936 17.2129 21.5132 18.8556 20.302 20.0668C19.0909 21.2779 17.4482 21.9584 15.7353 21.9584C14.0224 21.9584 12.3797 21.2779 11.1686 20.0668C9.9574 18.8556 9.27697 17.2129 9.27697 15.5C9.27697 13.7872 9.9574 12.1445 11.1686 10.9333C12.3797 9.72214 14.0224 9.04171 15.7353 9.04171ZM15.7353 11.625C14.7076 11.625 13.722 12.0333 12.9953 12.76C12.2686 13.4867 11.8603 14.4723 11.8603 15.5C11.8603 16.5278 12.2686 17.5134 12.9953 18.2401C13.722 18.9668 14.7076 19.375 15.7353 19.375C16.763 19.375 17.7486 18.9668 18.4753 18.2401C19.202 17.5134 19.6103 16.5278 19.6103 15.5C19.6103 14.4723 19.202 13.4867 18.4753 12.76C17.7486 12.0333 16.763 11.625 15.7353 11.625Z" fill="#EBAE2D"/>
</svg>
