<svg width="49" height="46" viewBox="0 0 49 46" fill="none" xmlns="http://www.w3.org/2000/svg">
<rect width="49" height="46" fill="#4F8CF5"/>
<path d="M13.5 33.5C12.7437 33.5 12.0966 33.231 11.5585 32.6929C11.0204 32.1548 10.7509 31.5072 10.75 30.75V14.25C10.75 13.4937 11.0195 12.8466 11.5585 12.3085C12.0975 11.7704 12.7447 11.5009 13.5 11.5H35.5C36.2563 11.5 36.9039 11.7695 37.4429 12.3085C37.9819 12.8475 38.2509 13.4947 38.25 14.25V30.75C38.25 31.5063 37.981 32.1539 37.4429 32.6929C36.9048 33.2319 36.2572 33.5009 35.5 33.5H13.5ZM24.5 23.875L35.5 17V14.25L24.5 21.125L13.5 14.25V17L24.5 23.875Z" fill="white"/>
</svg>
