<svg width="49" height="46" viewBox="0 0 49 46" fill="none" xmlns="http://www.w3.org/2000/svg">
<rect width="49" height="46" fill="#4F8CF5"/>
<path d="M16.9876 21.3104C18.9983 25.2621 22.2379 28.4877 26.1896 30.5124L29.2616 27.4404C29.6386 27.0634 30.1972 26.9377 30.6859 27.1053C32.2498 27.622 33.9394 27.9012 35.6709 27.9012C36.4389 27.9012 37.0673 28.5296 37.0673 29.2976V34.1709C37.0673 34.9389 36.4389 35.5673 35.6709 35.5673C22.5591 35.5673 11.9327 24.9409 11.9327 11.8291C11.9327 11.0611 12.5611 10.4327 13.3291 10.4327H18.2164C18.9844 10.4327 19.6127 11.0611 19.6127 11.8291C19.6127 13.5746 19.892 15.2502 20.4087 16.8141C20.5623 17.3028 20.4505 17.8474 20.0596 18.2384L16.9876 21.3104Z" fill="white"/>
</svg>
