<svg width="49" height="46" viewBox="0 0 49 46" fill="none" xmlns="http://www.w3.org/2000/svg">
<rect width="49" height="46" fill="#4F8CF5"/>
<path d="M25 8.83337C19.5175 8.83337 15.0833 13.2675 15.0833 18.75C15.0833 26.1875 25 37.1667 25 37.1667C25 37.1667 34.9167 26.1875 34.9167 18.75C34.9167 13.2675 30.4825 8.83337 25 8.83337ZM25 22.2917C24.0607 22.2917 23.1599 21.9186 22.4957 21.2544C21.8315 20.5902 21.4583 19.6893 21.4583 18.75C21.4583 17.8107 21.8315 16.9099 22.4957 16.2457C23.1599 15.5815 24.0607 15.2084 25 15.2084C25.9393 15.2084 26.8401 15.5815 27.5043 16.2457C28.1685 16.9099 28.5417 17.8107 28.5417 18.75C28.5417 19.6893 28.1685 20.5902 27.5043 21.2544C26.8401 21.9186 25.9393 22.2917 25 22.2917Z" fill="white"/>
</svg>
