<svg width="28" height="28" viewBox="0 0 28 28" fill="none" xmlns="http://www.w3.org/2000/svg">
<path d="M10.8236 5.6459H17.5763C20.1487 5.6459 22.2388 7.73601 22.2388 10.3084V17.0611C22.2388 18.2977 21.7476 19.4836 20.8732 20.358C19.9988 21.2324 18.8128 21.7236 17.5763 21.7236H10.8236C8.25117 21.7236 6.16107 19.6335 6.16107 17.0611V10.3084C6.16107 9.07186 6.6523 7.88593 7.5267 7.01153C8.40109 6.13713 9.58703 5.6459 10.8236 5.6459ZM10.6628 7.25368C9.8953 7.25368 9.1592 7.55858 8.61647 8.10131C8.07374 8.64403 7.76884 9.38013 7.76884 10.1477V17.2219C7.76884 18.8216 9.0631 20.1158 10.6628 20.1158H17.737C18.5046 20.1158 19.2407 19.8109 19.7834 19.2682C20.3261 18.7255 20.631 17.9894 20.631 17.2219V10.1477C20.631 8.54793 19.3368 7.25368 17.737 7.25368H10.6628ZM18.4203 8.4595C18.6868 8.4595 18.9424 8.56537 19.1309 8.75382C19.3193 8.94227 19.4252 9.19786 19.4252 9.46436C19.4252 9.73087 19.3193 9.98646 19.1309 10.1749C18.9424 10.3634 18.6868 10.4692 18.4203 10.4692C18.1538 10.4692 17.8982 10.3634 17.7098 10.1749C17.5213 9.98646 17.4155 9.73087 17.4155 9.46436C17.4155 9.19786 17.5213 8.94227 17.7098 8.75382C17.8982 8.56537 18.1538 8.4595 18.4203 8.4595ZM14.1999 9.66533C15.2659 9.66533 16.2883 10.0888 17.0421 10.8426C17.7959 11.5964 18.2194 12.6187 18.2194 13.6848C18.2194 14.7508 17.7959 15.7731 17.0421 16.5269C16.2883 17.2807 15.2659 17.7042 14.1999 17.7042C13.1339 17.7042 12.1116 17.2807 11.3578 16.5269C10.604 15.7731 10.1805 14.7508 10.1805 13.6848C10.1805 12.6187 10.604 11.5964 11.3578 10.8426C12.1116 10.0888 13.1339 9.66533 14.1999 9.66533ZM14.1999 11.2731C13.5603 11.2731 12.9469 11.5272 12.4946 11.9795C12.0424 12.4317 11.7883 13.0452 11.7883 13.6848C11.7883 14.3244 12.0424 14.9378 12.4946 15.3901C12.9469 15.8423 13.5603 16.0964 14.1999 16.0964C14.8395 16.0964 15.453 15.8423 15.9052 15.3901C16.3575 14.9378 16.6116 14.3244 16.6116 13.6848C16.6116 13.0452 16.3575 12.4317 15.9052 11.9795C15.453 11.5272 14.8395 11.2731 14.1999 11.2731Z" fill="white"/>
<rect x="0.5" y="0.5" width="26.8182" height="26.8182" rx="13.4091" stroke="white"/>
</svg>
