<svg width="33" height="31" viewBox="0 0 33 31" fill="none" xmlns="http://www.w3.org/2000/svg">
<path d="M22.3686 7.5175C21.4574 6.50939 20.9551 5.21497 20.9553 3.875H16.8353V19.8917C16.8042 20.7586 16.4266 21.58 15.7824 22.1824C15.1381 22.7849 14.2774 23.1214 13.382 23.1208C11.4886 23.1208 9.91529 21.6225 9.91529 19.7625C9.91529 17.5408 12.1286 15.8746 14.4086 16.5592V12.4775C9.80862 11.8833 5.78195 15.345 5.78195 19.7625C5.78195 24.0637 9.46195 27.125 13.3686 27.125C17.5553 27.125 20.9553 23.8312 20.9553 19.7625V11.6379C22.6259 12.8002 24.6318 13.4238 26.6886 13.4204V9.42917C26.6886 9.42917 24.182 9.54542 22.3686 7.5175Z" fill="#EBAE2D"/>
</svg>
