<svg width="29" height="28" viewBox="0 0 29 28" fill="none" xmlns="http://www.w3.org/2000/svg">
<path d="M18.45 8.33774C17.8338 7.63414 17.4943 6.7307 17.4943 5.79547H14.7087V16.9743C14.6876 17.5793 14.4324 18.1526 13.9967 18.5731C13.5611 18.9936 12.9792 19.2284 12.3737 19.228C11.0936 19.228 10.0298 18.1823 10.0298 16.8841C10.0298 15.3335 11.5263 14.1705 13.0679 14.6483V11.7996C9.95768 11.3849 7.23511 13.8009 7.23511 16.8841C7.23511 19.8862 9.72329 22.0227 12.3647 22.0227C15.1955 22.0227 17.4943 19.7239 17.4943 16.8841V11.2136C18.6239 12.0248 19.9802 12.4601 21.3709 12.4577V9.67199C21.3709 9.67199 19.676 9.75312 18.45 8.33774Z" fill="white"/>
<rect x="0.893921" y="0.5" width="26.8182" height="26.8182" rx="13.4091" stroke="white"/>
</svg>
