<svg width="51" height="53" viewBox="0 0 51 53" fill="none" xmlns="http://www.w3.org/2000/svg">
<path d="M35.0625 24.3125C35.0625 29.6038 30.7913 33.875 25.5 33.875C20.2088 33.875 15.9375 29.6038 15.9375 24.3125C15.9375 19.0213 20.2088 14.75 25.5 14.75C30.7913 14.75 35.0625 19.0213 35.0625 24.3125Z" fill="white"/>
<path fill-rule="evenodd" clip-rule="evenodd" d="M51 26.2857C51 40.3745 39.5887 51.7857 25.5 51.7857C11.4113 51.7857 0 40.3745 0 26.2857C0 12.197 11.4113 0.785706 25.5 0.785706C39.5887 0.785706 51 12.197 51 26.2857ZM12.75 44.6138C13.26 43.766 18.2006 35.8482 25.4681 35.8482C32.7038 35.8482 37.6763 43.7851 38.1862 44.6138C41.1502 42.5642 43.572 39.8253 45.2432 36.6327C46.9145 33.4401 47.7853 29.8893 47.7806 26.2857C47.7806 13.9501 37.8037 3.97321 25.4681 3.97321C13.1325 3.97321 3.15563 13.9501 3.15563 26.2857C3.15563 33.872 6.94875 40.5976 12.75 44.6138Z" fill="white"/>
</svg>
