<svg width="32" height="31" viewBox="0 0 32 31" fill="none" xmlns="http://www.w3.org/2000/svg">
<path d="M24.8415 6.34207C23.6572 5.14613 22.2466 4.19786 20.6921 3.55254C19.1375 2.90722 17.4701 2.57775 15.787 2.58332C8.73446 2.58332 2.98654 8.33124 2.98654 15.3837C2.98654 17.6442 3.58071 19.84 4.69154 21.7775L2.88321 28.4167L9.66446 26.6342C11.5374 27.6546 13.6428 28.1971 15.787 28.1971C22.8395 28.1971 28.5874 22.4492 28.5874 15.3967C28.5874 11.9737 27.257 8.75749 24.8415 6.34207ZM15.787 26.0271C13.8753 26.0271 12.0024 25.5104 10.362 24.5417L9.97446 24.3092L5.94446 25.3683L7.01654 21.4417L6.75821 21.0412C5.69587 19.3454 5.1319 17.3849 5.13071 15.3837C5.13071 9.51957 9.90987 4.7404 15.774 4.7404C18.6157 4.7404 21.2895 5.85124 23.2915 7.86624C24.283 8.85289 25.0688 10.0266 25.6031 11.3193C26.1375 12.612 26.4099 13.9979 26.4045 15.3967C26.4303 21.2608 21.6511 26.0271 15.787 26.0271ZM21.6253 18.0704C21.3024 17.9154 19.7265 17.1404 19.4424 17.0242C19.1453 16.9208 18.9386 16.8692 18.719 17.1792C18.4995 17.5021 17.8924 18.2254 17.7115 18.4321C17.5307 18.6517 17.337 18.6775 17.014 18.5096C16.6911 18.3546 15.6578 18.0058 14.4436 16.9208C13.4878 16.0683 12.8549 15.0221 12.6611 14.6992C12.4803 14.3762 12.6353 14.2083 12.8032 14.0404C12.9453 13.8983 13.1261 13.6658 13.2811 13.485C13.4361 13.3042 13.5007 13.1621 13.604 12.9554C13.7074 12.7358 13.6557 12.555 13.5782 12.4C13.5007 12.245 12.8549 10.6692 12.5965 10.0233C12.3382 9.40332 12.067 9.48082 11.8732 9.4679H11.2532C11.0336 9.4679 10.6978 9.5454 10.4007 9.86832C10.1165 10.1912 9.28988 10.9662 9.28988 12.5421C9.28988 14.1179 10.4395 15.6421 10.5945 15.8487C10.7495 16.0683 12.8549 19.2975 16.0582 20.6796C16.8203 21.0154 17.4145 21.2092 17.8795 21.3512C18.6415 21.5967 19.339 21.5579 19.8945 21.4804C20.5145 21.39 21.7932 20.7054 22.0515 19.9562C22.3228 19.2071 22.3228 18.5742 22.2324 18.4321C22.142 18.29 21.9482 18.2254 21.6253 18.0704Z" fill="#EBAE2D"/>
</svg>
