<svg width="29" height="28" viewBox="0 0 29 28" fill="none" xmlns="http://www.w3.org/2000/svg">
<path d="M20.9625 7.61091C20.2146 6.8557 19.3238 6.25689 18.3422 5.84939C17.3605 5.44188 16.3076 5.23383 15.2447 5.23735C10.7912 5.23735 7.16157 8.86702 7.16157 13.3205C7.16157 14.7479 7.53677 16.1345 8.23823 17.358L7.09631 21.5505L11.3785 20.4249C12.5612 21.0692 13.8907 21.4118 15.2447 21.4118C19.6982 21.4118 23.3279 17.7821 23.3279 13.3287C23.3279 11.1672 22.4878 9.13619 20.9625 7.61091ZM15.2447 20.0415C14.0376 20.0415 12.8548 19.7153 11.819 19.1035L11.5743 18.9567L9.02942 19.6255L9.70641 17.1459L9.54328 16.8931C8.87244 15.8222 8.51631 14.5842 8.51556 13.3205C8.51556 9.61742 11.5335 6.5995 15.2366 6.5995C17.031 6.5995 18.7194 7.30096 19.9837 8.57338C20.6098 9.19643 21.106 9.9376 21.4434 10.7539C21.7808 11.5702 21.9528 12.4454 21.9494 13.3287C21.9657 17.0317 18.9478 20.0415 15.2447 20.0415ZM18.9315 15.0171C18.7276 14.9192 17.7325 14.4298 17.553 14.3564C17.3654 14.2911 17.2349 14.2585 17.0963 14.4543C16.9576 14.6582 16.5742 15.115 16.4601 15.2455C16.3459 15.3841 16.2235 15.4004 16.0196 15.2944C15.8157 15.1965 15.1632 14.9763 14.3964 14.2911C13.7929 13.7528 13.3932 13.0921 13.2708 12.8882C13.1566 12.6843 13.2545 12.5783 13.3606 12.4722C13.4503 12.3825 13.5645 12.2357 13.6623 12.1215C13.7602 12.0073 13.801 11.9176 13.8663 11.7871C13.9315 11.6484 13.8989 11.5342 13.8499 11.4363C13.801 11.3385 13.3932 10.3434 13.2301 9.93553C13.0669 9.54402 12.8956 9.59295 12.7733 9.5848H12.3818C12.2431 9.5848 12.031 9.63374 11.8434 9.83765C11.664 10.0416 11.142 10.531 11.142 11.5261C11.142 12.5212 11.8679 13.4836 11.9658 13.6141C12.0637 13.7528 13.3932 15.7919 15.416 16.6647C15.8972 16.8768 16.2724 16.9991 16.5661 17.0888C17.0473 17.2438 17.4878 17.2193 17.8385 17.1704C18.23 17.1133 19.0375 16.681 19.2007 16.2079C19.3719 15.7348 19.3719 15.3352 19.3148 15.2455C19.2578 15.1557 19.1354 15.115 18.9315 15.0171Z" fill="white"/>
<rect x="1.28784" y="0.5" width="26.8182" height="26.8182" rx="13.4091" stroke="white"/>
</svg>
